001	*********** ****    ****      ***      ******** *********** ****    *** **********
002	 
003	          *+*     +*+*+* *+*+*+   *+* *+*   *+*    *+*    *+*     *+*+*   *+* *+*       
004	 
005	          +*+     +*+ +*+*+ +*+  +*+   +*+  +*+           +*+     *+*+*+  +*+ +*+       
006	 
007	          +$+     +$+  +*+  +$+ +$++*++$++* *$*           +$+     +$+ +*+ +$+ +$++*++$ 
008	 
009	          +$+     +$+       +$+ +$+     +$+ +$+   +$+$    +$+     +$+  +$+$+$ +$+       
010	 
011	          $+$     $+$       $+$ $+$     $+$ $+$    $+$    $+$     $+$   $+$+$ $+$       
012	 
013	      $$$$$$$$$$$ $$$       $$$ $$$     $$$  $$$$$$$$ $$$$$$$$$$$ $$$    $$$$ $$$$$$$$$$     
014	 
015	 
016	                                                
017	 
018	 
019	 
020	 
021	 
022	 
023	 
024	                                                        Another Fine Release Brought to you from - IMAGiNE                 
025	 
026	                                                
027	 
028	 
029	 
030	******************************************************************************************************************                     
031	 
032	                                                                         Faster TS XViD - IMAGiNE
033	 
034	 
035	 
036	******************************************************************************************************************
037	 
038	 
039	 
040	Ripper ...........:IMAGiNE                                   IMDB Rating.......:7.4/10                           
041	 
042	Video Codec.......:XVID                                      Release Date......:12/16/10
043	 
044	Audio Codec.......:MP3                                       Theatre Date......:11/24/10
045	 
046	Audio Bitrate.....:128                                       Runtime...........:1h 33mn
047	 
048	Subtitles.........:NIL                                       Language..........:ENGLISH
049	 
050	Resolution........:720 x 400                                 IMDb URL..........:http://www.imdb.com/title/tt1433108/
051	 
052	 
053	 
054	 
055	 
056	DETAILS:
057	 
058	 
059	 
060	Video
061	 
062	ID                               : 0
063	 
064	Format                           : MPEG-4 Visual
065	 
066	Format profile                   : Advanced Simple@L5
067	 
068	Format settings, BVOP            : Yes
069	 
070	Format settings, QPel            : No
071	 
072	Format settings, GMC             : No warppoints
073	 
074	Format settings, Matrix          : Default (H.263)
075	 
076	Muxing mode                      : Packed bitstream
077	 
078	Codec ID                         : XVID
079	 
080	Codec ID/Hint                    : XviD
081	 
082	Duration                         : 1h 33mn
083	 
084	Bit rate                         : 1 845 Kbps
085	 
086	Width                            : 720 pixels
087	 
088	Height                           : 400 pixels
089	 
090	Display aspect ratio             : 16:9
091	 
092	Frame rate                       : 29.970 fps
093	 
094	Color space                      : YUV
095	 
096	Chroma subsampling               : 4:2:0
097	 
098	Bit depth                        : 8 bits
099	 
100	Scan type                        : Progressive
101	 
102	Compression mode                 : Lossy
103	 
104	Bits/(Pixel*Frame)               : 0.214
105	 
106	Stream size                      : 1.21 GiB (93%)
107	 
108	Writing library                  : XviD 1.2.1 (UTC 2008-12-04)
109	 
110	 
111	 
112	Audio
113	 
114	ID                               : 1
115	 
116	Format                           : MPEG Audio
117	 
118	Format version                   : Version 1
119	 
120	Format profile                   : Layer 3
121	 
122	Codec ID                         : 55
123	 
124	Codec ID/Hint                    : MP3
125	 
126	Duration                         : 1h 33mn
127	 
128	Bit rate mode                    : Constant
129	 
130	Bit rate                         : 128 Kbps
131	 
132	Channel(s)                       : 2 channels
133	 
134	Sampling rate                    : 44.1 KHz
135	 
136	Compression mode                 : Lossy
137	 
138	Stream size                      : 85.6 MiB (6%)
139	 
140	Alignment                        : Split accross interleaves
141	 
142	Interleave, duration             : 33 ms (1.00 video frame)
143	 
144	Interleave, preload duration     : 500 ms
145	 
146	 
147	 
148	 
149	 
150	 
151	 
152	 
153	 
154	 
155	 
156	 
157	 
158	SOURCES:
159	 
160	 
161	 
162	VIDEO:From a very good friend ...... AND 46 seconds of the LKRG video ...Thanks mates
163	 
164	AUDIO:LiNE from LU Synced by us ......Thanks mate
165	 
166	 
167	 
168	NOTES:
169	 
170	 
171	 
172	IMAGiNE bringing you another release.......... Faster
173	 
174	 
175	 
176	Here we are with our TS of Faster... This is the same video as our cam video with line audio added.
177	 
178	First off we took 46 seconds from the LKRG video release to add to the video on this
179	 
180	release to make it a full release.
181	 
182	The video is much better than the previous source, but still some what cropped.
183	 
184	Not bad but none the less thought we would tell you. We've done our normal filtering changing the
185	 
186	brightness,contrast,colour, resize etc... TUrned out to be a very watchable cam OMI...
187	 
188	Now for the audio we we're given line by lu, but it was missing 7:28 minutes from the beginning. So we
189	 
190	used cam audio for that portion to make it a complete release. Then it was just a matter of syncing
191	 
192	and filtering it. We remastered the audio as it lacked bassand had a few other issues, so we
193	 
194	livened it up some for you folks.
195	 
196	 
197	 
198	 
199	 
200	Enjoy folks....